<?xml version="1.0" encoding="UTF-8" standalone="no"?>
<!-- Created with Inkscape (http://www.inkscape.org/) -->

<svg
   version="1.1"
   id="svg2715"
   xml:space="preserve"
   width="682.66669"
   height="682.66669"
   viewBox="0 0 682.66669 682.66669"
   xmlns="http://www.w3.org/2000/svg"
   xmlns:svg="http://www.w3.org/2000/svg"><defs
     id="defs2719"><clipPath
       clipPathUnits="userSpaceOnUse"
       id="clipPath2729"><path
         d="M 0,512 H 512 V 0 H 0 Z"
         id="path2727" /></clipPath></defs><g
     id="g2721"
     transform="matrix(1.3333333,0,0,-1.3333333,0,682.66667)"><g
       id="g2723"><g
         id="g2725"
         clip-path="url(#clipPath2729)"><g
           id="g2731"
           transform="translate(504.5,261.4102)"><path
             d="M 0,0 H -0.001 C -164.023,33.003 -332.977,33.003 -496.999,0 H -497"
             style="fill:none;stroke:#000000;stroke-width:15;stroke-linecap:round;stroke-linejoin:round;stroke-miterlimit:10;stroke-dasharray:none;stroke-opacity:1"
             id="path2733" /></g><g
           id="g2735"
           transform="translate(361.4639,207.5425)"><path
             d="M 0,0 C 43.536,22.458 93.536,33.458 143.036,28.364"
             style="fill:none;stroke:#000000;stroke-width:15;stroke-linecap:round;stroke-linejoin:round;stroke-miterlimit:10;stroke-dasharray:none;stroke-opacity:1"
             id="path2737" /></g><g
           id="g2739"
           transform="translate(7.502,175.146)"><path
             d="m 0,0 c 22.498,5.854 45.498,6.854 68.498,3.854 18,-3 35,-8 53,-14 38,-14 76,-28 117,-19 28,7 52,21 75.467,36.74"
             style="fill:none;stroke:#000000;stroke-width:15;stroke-linecap:round;stroke-linejoin:round;stroke-miterlimit:10;stroke-dasharray:none;stroke-opacity:1"
             id="path2741" /></g><g
           id="g2743"
           transform="translate(7.5,117.9204)"><path
             d="M 0,0 C 0,0 28.403,28.084 175.442,-5.712 292.437,-32.602 289.085,45.706 497,25.604"
             style="fill:none;stroke:#000000;stroke-width:15;stroke-linecap:round;stroke-linejoin:round;stroke-miterlimit:10;stroke-dasharray:none;stroke-opacity:1"
             id="path2745" /></g><g
           id="g2747"
           transform="translate(356.8555,7.5)"><path
             d="M 0,0 H -50.88"
             style="fill:none;stroke:#000000;stroke-width:15;stroke-linecap:round;stroke-linejoin:round;stroke-miterlimit:10;stroke-dasharray:none;stroke-opacity:1"
             id="path2749" /></g><g
           id="g2751"
           transform="translate(107.7227,81.1841)"><path
             d="M 0,0 H -50.88"
             style="fill:none;stroke:#000000;stroke-width:15;stroke-linecap:round;stroke-linejoin:round;stroke-miterlimit:10;stroke-dasharray:none;stroke-opacity:1"
             id="path2753" /></g><g
           id="g2755"
           transform="translate(454.1924,53.645)"><path
             d="M 0,0 H -96.439"
             style="fill:none;stroke:#000000;stroke-width:15;stroke-linecap:round;stroke-linejoin:round;stroke-miterlimit:10;stroke-dasharray:none;stroke-opacity:1"
             id="path2757" /></g><g
           id="g2759"
           transform="translate(161.7822,252.9756)"><path
             d="M 0,0 -15.372,111.148"
             style="fill:none;stroke:#000000;stroke-width:15;stroke-linecap:round;stroke-linejoin:round;stroke-miterlimit:10;stroke-dasharray:none;stroke-opacity:1"
             id="path2761" /></g><g
           id="g2763"
           transform="translate(36.5762,410.7739)"><path
             d="m 0,0 c -8.094,-19.212 -11.291,-40.801 -8.224,-62.978 l 236.123,32.656 C 218.842,35.169 158.642,80.95 93.438,71.933 63.925,67.851 38.445,53.241 20.234,32.398"
             style="fill:none;stroke:#000000;stroke-width:15;stroke-linecap:round;stroke-linejoin:round;stroke-miterlimit:10;stroke-dasharray:none;stroke-opacity:1"
             id="path2765" /></g><g
           id="g2767"
           transform="translate(71.0352,353.6992)"><path
             d="M 0,0 C -9.058,65.491 17.349,123.25 58.979,129.007 100.609,134.765 141.7,86.341 150.758,20.85"
             style="fill:none;stroke:#000000;stroke-width:15;stroke-linecap:round;stroke-linejoin:round;stroke-miterlimit:10;stroke-dasharray:none;stroke-opacity:1"
             id="path2769" /></g><g
           id="g2771"
           transform="translate(119.4463,360.394)"><path
             d="M 0,0 C -9.058,65.492 -4.326,120.252 10.567,122.313 25.462,124.373 44.878,72.951 53.936,7.459"
             style="fill:none;stroke:#000000;stroke-width:15;stroke-linecap:butt;stroke-linejoin:round;stroke-miterlimit:10;stroke-dasharray:none;stroke-opacity:1"
             id="path2773" /></g><g
           id="g2775"
           transform="translate(69.2559,219.5054)"><path
             d="M 0,0 C 9.651,0 9.668,15 0,15 -9.652,15 -9.668,0 0,0"
             style="fill:#000000;fill-opacity:1;fill-rule:nonzero;stroke:none"
             id="path2777" /></g><g
           id="g2779"
           transform="translate(246.3408,183.5)"><path
             d="M 0,0 C 9.651,0 9.668,15 0,15 -9.651,15 -9.668,0 0,0"
             style="fill:#000000;fill-opacity:1;fill-rule:nonzero;stroke:none"
             id="path2781" /></g><g
           id="g2783"
           transform="translate(322.7715,238.5)"><path
             d="M 0,0 C 9.651,0 9.667,15 0,15 -9.652,15 -9.668,0 0,0"
             style="fill:#000000;fill-opacity:1;fill-rule:nonzero;stroke:none"
             id="path2785" /></g><g
           id="g2787"
           transform="translate(458.4121,412.6973)"><path
             d="m 0,0 c 0,-25.247 -20.468,-45.714 -45.715,-45.714 -25.247,0 -45.714,20.467 -45.714,45.714 0,25.248 20.467,45.714 45.714,45.714 C -20.468,45.714 0,25.248 0,0 Z"
             style="fill:none;stroke:#000000;stroke-width:15;stroke-linecap:round;stroke-linejoin:round;stroke-miterlimit:10;stroke-dasharray:none;stroke-opacity:1"
             id="path2789" /></g><g
           id="g2791"
           transform="translate(412.6973,504.5)"><path
             d="M 0,0 V -18.286"
             style="fill:none;stroke:#000000;stroke-width:15;stroke-linecap:round;stroke-linejoin:round;stroke-miterlimit:10;stroke-dasharray:none;stroke-opacity:1"
             id="path2793" /></g><g
           id="g2795"
           transform="translate(366.7959,492.2007)"><path
             d="M 0,0 9.143,-15.836"
             style="fill:none;stroke:#000000;stroke-width:15;stroke-linecap:round;stroke-linejoin:round;stroke-miterlimit:10;stroke-dasharray:none;stroke-opacity:1"
             id="path2797" /></g><g
           id="g2799"
           transform="translate(333.1943,458.5986)"><path
             d="M 0,0 15.836,-9.143"
             style="fill:none;stroke:#000000;stroke-width:15;stroke-linecap:round;stroke-linejoin:round;stroke-miterlimit:10;stroke-dasharray:none;stroke-opacity:1"
             id="path2801" /></g><g
           id="g2803"
           transform="translate(320.8945,412.6973)"><path
             d="M 0,0 H 18.286"
             style="fill:none;stroke:#000000;stroke-width:15;stroke-linecap:round;stroke-linejoin:round;stroke-miterlimit:10;stroke-dasharray:none;stroke-opacity:1"
             id="path2805" /></g><g
           id="g2807"
           transform="translate(333.1943,366.7959)"><path
             d="M 0,0 15.836,9.143"
             style="fill:none;stroke:#000000;stroke-width:15;stroke-linecap:round;stroke-linejoin:round;stroke-miterlimit:10;stroke-dasharray:none;stroke-opacity:1"
             id="path2809" /></g><g
           id="g2811"
           transform="translate(366.7959,333.1938)"><path
             d="M 0,0 9.143,15.836"
             style="fill:none;stroke:#000000;stroke-width:15;stroke-linecap:round;stroke-linejoin:round;stroke-miterlimit:10;stroke-dasharray:none;stroke-opacity:1"
             id="path2813" /></g><g
           id="g2815"
           transform="translate(412.6973,320.8945)"><path
             d="M 0,0 V 18.286"
             style="fill:none;stroke:#000000;stroke-width:15;stroke-linecap:round;stroke-linejoin:round;stroke-miterlimit:10;stroke-dasharray:none;stroke-opacity:1"
             id="path2817" /></g><g
           id="g2819"
           transform="translate(458.5986,333.1938)"><path
             d="M 0,0 -9.143,15.836"
             style="fill:none;stroke:#000000;stroke-width:15;stroke-linecap:round;stroke-linejoin:round;stroke-miterlimit:10;stroke-dasharray:none;stroke-opacity:1"
             id="path2821" /></g><g
           id="g2823"
           transform="translate(492.2012,366.7959)"><path
             d="M 0,0 -15.836,9.143"
             style="fill:none;stroke:#000000;stroke-width:15;stroke-linecap:round;stroke-linejoin:round;stroke-miterlimit:10;stroke-dasharray:none;stroke-opacity:1"
             id="path2825" /></g><g
           id="g2827"
           transform="translate(504.5,412.6973)"><path
             d="M 0,0 H -18.286"
             style="fill:none;stroke:#000000;stroke-width:15;stroke-linecap:round;stroke-linejoin:round;stroke-miterlimit:10;stroke-dasharray:none;stroke-opacity:1"
             id="path2829" /></g><g
           id="g2831"
           transform="translate(492.2012,458.5986)"><path
             d="M 0,0 -15.836,-9.143"
             style="fill:none;stroke:#000000;stroke-width:15;stroke-linecap:round;stroke-linejoin:round;stroke-miterlimit:10;stroke-dasharray:none;stroke-opacity:1"
             id="path2833" /></g><g
           id="g2835"
           transform="translate(458.5986,492.2007)"><path
             d="M 0,0 -9.143,-15.836"
             style="fill:none;stroke:#000000;stroke-width:15;stroke-linecap:round;stroke-linejoin:round;stroke-miterlimit:10;stroke-dasharray:none;stroke-opacity:1"
             id="path2837" /></g></g></g></g></svg>
